<?xml version="1.0" encoding="UTF-8" standalone="no"?>
<svg xmlns:dc="http://purl.org/dc/elements/1.1/" xmlns:cc="http://creativecommons.org/ns#" xmlns:rdf="http://www.w3.org/1999/02/22-rdf-syntax-ns#" xmlns:svg="http://www.w3.org/2000/svg" xmlns="http://www.w3.org/2000/svg" xmlns:sodipodi="http://sodipodi.sourceforge.net/DTD/sodipodi-0.dtd" xmlns:inkscape="http://www.inkscape.org/namespaces/inkscape" width="278pt" height="228pt" viewBox="0 0 278 228" version="1.1" id="svg2" sodipodi:version="0.32" inkscape:version="0.47 r22583" sodipodi:docname="Firma_Pablo_Neruda.svg" inkscape:output_extension="org.inkscape.output.svg.inkscape">
  <metadata id="metadata31">
    <rdf:RDF>
      <cc:Work rdf:about="">
        <dc:format>image/svg+xml</dc:format>
        <dc:type rdf:resource="http://purl.org/dc/dcmitype/StillImage"/>
      </cc:Work>
    </rdf:RDF>
  </metadata>
  <defs id="defs29">
    <inkscape:perspective sodipodi:type="inkscape:persp3d" inkscape:vp_x="0 : 142.5 : 1" inkscape:vp_y="0 : 1000 : 0" inkscape:vp_z="347.5 : 142.5 : 1" inkscape:persp3d-origin="173.75 : 95 : 1" id="perspective33"/>
  </defs>
  <sodipodi:namedview inkscape:window-height="710" inkscape:window-width="1360" inkscape:pageshadow="2" inkscape:pageopacity="0.0" guidetolerance="10.0" gridtolerance="10.0" objecttolerance="10.0" borderopacity="1.0" bordercolor="#666666" pagecolor="#ffffff" id="base" showgrid="false" inkscape:zoom="1.809227" inkscape:cx="178.14714" inkscape:cy="146.19542" inkscape:window-x="-4" inkscape:window-y="-4" inkscape:current-layer="svg2" inkscape:window-maximized="1"/>
  <path style="fill:#36441b;stroke:#36441b;stroke-width:0.11718750000000000;fill-opacity:1" d="M 320.3125 10.375 C 318.93335 10.453369 317.59375 10.828125 316.375 11.625 C 312.875 13.875 309.625 16.25 306.5 19.125 C 300.125 28 292.125 35.75 286 44.875 C 281.125 52.375 275.25 59 270.375 66.5 C 267.625 70.75 264.625 74.75 261.5 78.75 C 260.125 80.75 258.75 82.875 257.5 84.875 C 252.75 89.5 247 93.25 242.375 98 C 242.125 98 241.625 98.125 241.375 98.125 C 238.125 100.5 234.625 102.75 231.125 104.875 C 229.75 105.25 228.25 105.625 226.75 106 C 226.75 104.625 226.75 103.375 226.875 102 C 227.375 102 228.375 101.875 228.75 101.875 C 229.375 101.375 230.5 100.25 231 99.75 C 230.625 97.375 228.625 96.625 226.5 96.5 C 222.875 100.875 220.375 106.125 216.25 110 C 210.625 115.75 205 121.75 198.625 126.875 C 197.25 126.875 196 127 194.625 127 C 194.625 126.125 194.5 124.5 194.5 123.625 C 195.125 122 195.875 120.5 196.625 118.875 L 199.625 112.5 C 202.625 107 206.5 102.125 209.125 96.375 C 210.125 93.875 211.375 91.25 212.75 88.875 C 214.375 85.5 215.625 82.125 217.875 79.125 C 223.125 72 227.5 64 233.875 57.5 C 236.375 55 238.875 52.5 241 49.625 C 245.25 44 250.875 39.625 255.375 34.25 C 257.625 31.5 259.625 28.625 261.875 25.875 L 261.5 24.5 L 263.125 24.375 L 263.125 22.625 C 263.5 22.75 264.5 23 265 23.125 C 263.875 21.875 262.875 20.5 262 19.125 C 260.5 19.625 258.875 20.25 257.375 21 C 255.125 23.75 252.5 26.25 250 28.875 C 245.5 35.125 240.25 40.875 236.125 47.375 C 232 54 227.5 60.25 222.5 66.125 C 217.875 69.5 213.875 73.5 210.375 78 C 208.125 80.25 206 82.75 203.875 85.25 C 201.125 87.625 198.375 90 195.5 92.25 L 195.625 92.75 C 194.625 93.5 193.625 94.375 192.625 95.25 C 186.875 102.25 180.125 108.5 173.75 115 C 170.625 117.375 167.75 119.875 164.875 122.5 C 159.375 127.5 153.125 131.5 148.5 137.5 C 146.125 139.375 143.75 141.125 141.375 143.125 C 139.375 143.75 137.5 144.375 135.5 144.875 C 135.125 140.25 136.375 135.875 139 132.125 L 142 127.25 C 145.125 121.75 148.375 116.375 152.75 111.875 C 155 108.625 157.375 105.5 159.5 102.25 C 162.375 99 165.5 96.125 167.75 92.375 C 170.5 88 174.5 84.625 176.75 79.875 C 177.625 77.125 177.25 74.25 177 71.375 C 175.875 71.625 173.75 72 172.625 72.125 C 168.875 77.75 164.75 83.125 160.875 88.625 C 154.875 97.375 146.375 104.375 141.25 113.875 C 137.5 120 130.75 123.25 126.375 128.875 C 118.75 136.25 112.375 145.125 103.375 151 C 101.625 151.75 99.75 152.375 97.875 153 C 97.875 150.5 98 148.125 98.75 145.75 L 99.375 145 C 105.5 137.375 110.875 129.125 117.375 122 L 117.75 122.125 C 124.875 114.125 130.25 104.25 139.375 98.125 C 146.375 91 153 83.25 161.25 77.25 C 165.75 73.375 170.125 69.375 174.75 65.625 C 177.5 69.5 180.75 63.5 183.5 62.125 C 182.5 60 181 58.375 179.375 56.75 C 177.375 57.5 175.5 58.125 173.625 58.875 C 167.875 61.5 163.75 66.375 158.875 70.25 C 151.875 77.375 144.25 83.875 137.5 91.125 C 130.375 98.375 123.875 106 117.125 113.5 C 111.5 121.875 104.75 129.25 99 137.5 C 97.375 139.875 95.875 142.25 94.375 144.625 C 92.875 147.75 92.25 151.5 93.25 154.875 C 94.75 158.25 98.625 157.875 101.625 157 C 111.625 149.5 120.125 140.25 128.375 130.875 L 132.125 127.125 C 133.125 126.5 134.25 125.875 135.25 125.25 C 130.5 132.125 128.25 141.5 132.375 149.25 C 134.25 149.375 136.125 149.5 138 149.25 C 147 143.625 153.25 135 162 129 C 167.375 124 172.75 119 177.75 113.5 C 178.125 113.375 179 113 179.5 112.875 L 179.5 111.375 L 184 107.625 C 188 103.5 192.125 99.375 196 94.875 L 198.625 91.5 C 199.125 91.625 200 91.75 200.5 91.75 C 200.375 91.375 200.25 90.375 200.25 90 C 201.5 89.125 202.75 88.25 203.875 87.25 C 204.75 86.5 205.625 85.75 206.5 85.125 C 207.125 84.125 208.375 82.375 209.125 81.5 C 211.125 84.5 207.625 87 206.375 89.5 C 201.75 95.5 198.75 102.375 194.75 108.625 C 194.125 110.375 193.375 112.125 192.75 113.875 C 191.75 116.875 190.75 119.75 189.375 122.625 C 189.75 125.25 190.25 127.75 191.25 130.125 C 195.875 132 200.25 128.75 203.75 126.125 C 209.875 120.875 215.5 115 220.625 108.75 C 221.75 109.5 222.75 110.25 223.875 111 C 226 110.5 228 109.875 230.125 109.125 C 235 105.625 240.125 102.25 244.75 98.375 C 246.75 96.875 248.875 95.625 251 94.5 C 249 97.875 247.125 101.25 245.75 104.875 C 245.625 108 245.5 111.125 245.75 114.375 C 252 115.875 257.625 112.625 262.875 109.625 C 266.125 109 269.5 109.25 272.625 108.25 C 276.5 105.25 279.875 101.875 283.75 99 C 288.5 95.625 292.375 90.875 298 88.875 C 298.25 88.375 298.875 87.5 299.25 87.125 L 299.25 90.125 C 295.875 93.75 293 97.75 289.75 101.375 C 288.5 104.875 288 108.375 289.375 111.875 L 290.25 111.75 C 290.875 112.375 291.875 113.625 292.375 114.375 C 292.625 114.375 293.25 114.5 293.5 114.625 C 295.625 115 297.875 115.375 300 115.625 C 303.125 113.625 306.25 111.625 308.625 108.75 C 309.875 106.125 311.125 103.5 312.375 100.75 C 314.375 99.625 316.5 98.375 318.625 97.125 C 320.125 96 321.75 94.75 323.375 93.625 C 323.625 91 322.375 89.125 320.125 87.875 C 318.5 89 316.875 90 315.25 91.125 C 312 96 309.25 101.125 306.75 106.5 C 304 110.875 298.625 113.5 293.5 111.25 C 293.25 109.625 293.375 108 293.375 106.25 C 297.75 100.25 303.125 94.875 307.5 88.625 C 309.25 87 311.25 85.625 313.375 84.375 C 311.75 82.875 310.25 81.375 308.625 79.875 C 306.125 81.375 303.75 83 301.375 84.625 C 293.625 86.5 288 92.375 282.5 97.5 C 280.875 98.875 279.375 100.25 277.75 101.5 C 274 103.25 270.25 105.125 266 104.75 C 261 107.5 256.125 110.625 250.75 112.5 L 250.75 108.5 C 253.25 100.125 259.125 93.375 263.625 86 C 266.25 82.125 269.375 78.5 272.25 74.875 C 277.875 69.625 283.375 64.25 289.125 59.125 C 299.5 47.875 308.75 35 322 26.625 C 324.375 24.25 326.5 21.5 328.5 18.875 C 328.25 16.5 327.875 14.125 327.125 11.875 C 325.01562 10.9375 322.61108 10.244385 320.3125 10.375 z M 319.125 16.875 C 323.25 18.25 318.875 21 317.625 22.5 C 309.375 28.75 305.25 38.5 297.625 45.25 C 296.875 46 296 46.75 295.25 47.5 C 289.625 54.625 283.25 61.25 276 66.625 C 275.875 66.875 275.625 67.25 275.625 67.375 L 270.75 71.125 C 274.875 66.375 279 61.625 282.25 56.125 C 284.875 52.5 288 49.125 290.25 45.125 C 291.5 43.125 292.75 41.125 294.25 39.375 C 299 34.375 302.125 28.125 307.5 23.75 C 310.625 20.5 314.375 17 319.125 16.875 z M 258.125 26.125 C 253 32 248.25 38.375 242.25 43.5 C 245.375 39.75 248.5 36 251.125 31.875 L 252.125 32.125 C 252 31.5 251.875 30.375 251.75 29.875 C 253.75 28.5 255.875 27.125 258.125 26.125 z " transform="scale(0.8,0.8)" id="path6"/>
  <path style="fill:#36441b;stroke:#36441b;stroke-width:0.11718750000000000;fill-opacity:1" d="M 134.375 65.625 C 132.5 65.75 130.75 65.75 128.875 65.875 C 126 67 122.875 68.125 120 69.25 C 117.125 70.375 114.25 71.5 111.375 72.75 C 107.75 74.25 104.25 76.125 101.125 78.375 C 95.625 83 90.125 87.625 84.875 92.5 C 84 94 83.25 95.5 82.375 97.125 C 82 102.125 77.625 105.375 75.625 109.75 C 72.625 115.625 67.5 119.875 63.5 124.875 C 60.375 130.375 57.125 135.875 53.5 141 C 52.625 142.25 51.75 143.625 50.875 144.875 C 50.25 145.875 49.5 146.75 48.875 147.75 C 47.75 149.75 46.5 151.75 45.375 153.875 C 42.75 158.375 39.75 162.5 37.25 167.125 C 35.375 170.375 35.75 174.375 35.625 178 C 36.875 178.125 38 178.25 39.125 178.375 C 40 176.375 40.875 174.5 41.75 172.625 C 42 170.5 42.125 168.375 42.375 166.25 L 43.125 165.625 L 43.75 165.375 C 47 159 51.75 153.625 54.5 147.125 C 57.75 143.875 61.25 140.75 65.5 139.125 C 72.125 136.25 78.125 132.125 84 127.875 C 86.75 125.5 89.625 123.125 92.625 121 L 93.25 121 C 99.25 118.625 102.375 112.375 107.75 109.125 C 115.5 104.75 121.625 97.875 127.25 91 C 131.125 86.25 135.125 81.625 138.375 76.375 C 140.375 72.125 137.5 68.25 134.375 65.625 z M 131.875 72.625 C 126 84 116.25 92.375 106.75 100.625 C 102.125 103.75 98.5 108.125 93.75 111.375 C 86.25 116.375 79.75 123 71.625 127.375 C 70.875 127.875 70.125 128.375 69.375 129 C 69 129.125 68.375 129.25 68 129.375 C 71.125 126.5 73.875 123.125 76.5 119.875 C 76.75 119.5 77.25 119 77.375 118.75 C 82.125 111.375 87.25 104.25 94 98.5 C 94.5 97.375 95 96.25 95.625 95.125 C 95.25 94.125 94.375 92.25 94 91.25 C 99 88 103.75 84.375 108.875 81.375 C 114.375 79 120 76.625 125.25 73.625 C 127.5 73.25 129.625 72.875 131.875 72.625 z " transform="scale(0.8,0.8)" id="path12"/>
  <path style="fill:#36441b;stroke:#36441b;stroke-width:0.11718750000000000;fill-opacity:1" d="M 320 138 L 315.875 144.75 C 314.875 147 313.875 149.125 312.875 151.375 C 310.875 155.125 308.875 159 306.375 162.5 C 303.125 166.875 301.25 172.125 298 176.375 C 296 178.75 294.375 181.25 292.75 183.875 C 292.25 185.25 291.75 186.75 291.25 188.25 C 288.5 188.375 285.75 188.375 283 188.25 L 282.875 189.625 C 282.5 189.5 281.625 189.25 281.125 189.125 C 280.625 189.75 279.5 190.875 278.875 191.375 C 277.5 192.875 276.125 194.25 274.75 195.75 C 269.625 203.5 263.375 210.25 257.75 217.625 C 255.375 219.875 252.75 222 249.875 223.375 C 248.625 224 247.5 224.625 246.25 225.125 C 242.25 227.75 238.25 230.5 233.625 232.125 C 233.25 231.375 232.5 230 232 229.375 L 232 223.375 C 232.5 222.875 233.375 221.75 233.875 221.125 L 234.625 215.5 L 235 215.5 C 236 211.375 237.375 207.375 238.25 203.125 C 237.125 202.25 236.125 201.375 235 200.5 C 229.875 203.875 225.25 207.875 221.25 212.375 C 219.625 213.75 218 215 216.375 216.375 C 210.125 222.125 204.5 228.625 197.375 233.625 C 195.875 234.75 194.375 235.75 192.875 236.75 C 192.875 233 194.375 229.5 195.875 226.125 C 199.375 221.875 201.625 216.875 203.375 211.75 L 203.75 211.75 C 207.125 206.125 210.5 200.625 213.25 194.875 C 214.625 191.875 216.375 189.125 218.625 186.75 C 218.125 184.75 217.25 182.875 216.5 181 C 211.875 183.375 208.875 187.75 205.25 191.25 C 204.25 192.875 203.25 194.5 202.25 196 C 201.875 196.375 200.875 196.875 200.5 197.25 L 200.75 197.625 L 194.75 203.625 C 194 204.375 193.125 205.125 192.25 205.875 C 184.875 214.75 176 222.25 168.125 230.75 C 164.125 234.875 159.5 238.75 156.375 243.75 C 154 246.5 151.625 249.25 149.125 252 L 146.25 252 C 147 250 147.75 248.125 148.375 246.125 C 148.875 244.875 149.25 243.5 149.625 242.125 C 152.625 236.875 156 231.75 159.25 226.625 C 160.25 224.875 161.25 223.125 162.375 221.375 L 166.5 213.875 C 169.125 208.625 172.5 204 175.25 198.875 C 176.25 196.75 177.25 194.625 178.375 192.375 C 179.125 190.125 179.875 187.875 180.75 185.5 C 179.125 181.125 174.375 183.25 171.25 184.5 C 166.875 187.5 162.125 189.75 157.5 192.125 C 148.625 197.75 141.375 205.5 134.75 213.5 C 129.125 219.875 123.5 226.25 118.25 233 C 110.875 242.375 104.625 252.875 95.5 260.75 C 94.875 260.75 93.625 260.625 93 260.625 C 92.875 257 92.75 253.375 93.5 249.875 C 94.875 247.875 96 245.75 97.25 243.625 C 97.625 242.375 98.125 241.125 98.5 239.875 C 99.625 237.75 100.875 235.625 102.125 233.5 C 113.125 224.125 124.875 215 132.375 202.375 C 134.625 199.125 136.875 195.75 139.25 192.625 C 140.875 189.875 140.875 186.75 139.25 184 C 136.375 184.125 133.625 184.375 131.125 185.625 C 129.25 188.125 127.25 190.375 125.125 192.5 C 121.625 197.375 116.875 201.125 113.875 206.375 C 111.875 209.625 109.125 212.5 106.25 215.125 C 105.875 215.75 105.125 217 104.875 217.5 C 102.375 221.625 100 225.875 97.75 230.125 C 96.5 232.5 95.25 235 94 237.5 C 93.375 238.625 92.875 239.625 92.375 240.75 C 92 242.5 91.5 244.25 91 246 C 87.625 252.5 86.375 260.5 89.625 267.25 C 92.125 267.125 94.75 267 97.25 266.625 C 100.125 263.5 103.25 260.625 106.25 257.5 C 110.875 252.875 114.5 247.375 118.75 242.5 L 122.875 237.625 C 124 235.5 125.25 233.375 126.375 231.375 C 139 216.625 150.875 200 168.625 191 C 169.625 190.625 170.5 190 171.25 189.25 C 171.875 190 172.5 190.625 173.125 191.375 C 172.25 192.5 171.375 193.75 170.5 194.875 L 170.5 196.125 C 168.5 199.375 166.625 202.875 164.625 206.125 C 164 207.5 163.375 208.875 162.75 210.375 L 161.75 210.5 L 162 212 L 161 212 C 160.375 213.5 159.75 214.875 159.125 216.375 C 157.375 219.125 155.625 222 154 225 C 153 226.625 152 228.375 151 230 C 150.375 231.25 149.625 232.5 149 233.75 C 147.375 236.625 146 239.5 144.375 242.375 C 142.625 246.375 141.375 250.75 141.875 255.125 C 142.375 255.875 143.125 257.375 143.625 258.125 L 147.5 258.125 C 150.625 256 153.75 254 156.5 251.375 C 163 245 168.75 238 175.125 231.375 C 180.5 226 185.5 220.25 191 214.875 C 193.75 212 196.375 208.875 198.875 205.75 C 199.75 205.875 200.625 206 201.5 206.25 C 201.125 206.375 200.375 206.75 200 206.875 C 198.375 210 196.375 213 195 216.25 C 193.375 221.75 190.375 226.625 187.25 231.25 C 187 235.125 185.5 239.375 187.5 242.875 C 189.75 243.125 191.875 242.875 194 242.25 L 195 241.875 C 202.875 236.625 209.125 229.5 216 223.25 C 220.875 219.25 224.875 214.5 229.75 210.625 C 229.625 212.375 229.375 215.75 229.25 217.5 C 227.75 222.75 228 228.375 228.25 233.75 C 229 234.25 230.5 235 231.125 235.375 C 232.5 235.375 233.875 235.5 235.125 235.5 C 239.5 233.5 243.5 231 247.375 228.375 C 248 228.375 249.125 228.25 249.625 228.25 C 248.875 230 248.125 231.875 247.5 233.75 C 246.375 234.875 245.375 236 244.25 237.25 C 244.25 239.625 244.25 242 244.375 244.25 C 246.5 245 248.75 245.625 251 245.25 C 252.375 244.375 253.75 243.625 255.25 242.875 C 261.5 238.125 265.375 230.875 271.875 226.125 C 272 229.875 271.75 233.75 271.875 237.5 C 272.625 239.125 273.5 240.75 274.375 242.375 L 274.25 243.25 L 275.75 243 L 275.625 244.5 C 279.25 244.625 283.125 244.75 286.625 243.125 C 290.25 240.875 293.5 238.125 297 235.75 C 300 234.75 303.125 234.625 306.125 234 C 311.125 230.875 315.875 227.375 321.375 225.125 C 323.25 230.875 327 235.375 332.25 238.25 C 333.875 238.125 337.125 237.875 338.625 237.75 C 337.875 235 335.75 234.125 333.25 234.125 C 327.125 232.125 325.875 225.25 323 220.375 C 317.375 217.375 313.125 223.375 309 226.375 C 309.375 224.625 310 222.875 311.75 222.25 C 311.75 222 311.625 221.75 311.5 221.5 C 313.375 219.375 315 217.25 316.625 215 C 317.75 214.125 318.875 213.25 320.125 212.375 C 321.875 210 323.625 207.625 325.25 205.125 C 326.125 203.375 327 201.5 327.875 199.75 L 327.875 197.125 C 326.375 197 324.875 196.875 323.5 196.75 C 320.625 199 317.75 201.25 314.625 203.375 C 310.75 206.75 308.5 211.375 305 215.125 L 302 217.75 L 302 219.375 L 300.5 219.5 C 300.5 219.875 300.625 220.75 300.75 221.125 C 299.875 222.25 299 223.5 298.125 224.625 C 297.625 226.875 297 229 296.625 231.25 C 291.75 234.125 287.125 237.125 282.5 240.375 C 281.5 240.375 279.5 240.375 278.5 240.25 C 278 239 277.5 237.625 276.875 236.25 C 277 234.125 277.25 232 277.625 230 C 278 227.5 278.375 225 279 222.5 C 280.375 220.125 281.625 217.625 282.75 215.125 C 286.125 208 290.25 201.375 295.375 195.375 C 297.125 193.125 298.875 190.875 300 188.125 L 300 187.875 C 301.25 185.625 302.625 183.375 304 181.25 C 306.75 177.25 309.25 173.125 311.375 168.75 C 315.875 162 321.375 156 325.125 148.75 C 325.625 147.875 326.375 146 326.75 145.125 L 326.75 138.125 C 324.5 138 322.25 138 320 138 z M 286.75 193 C 286.75 193.5 286.625 194.5 286.625 195 L 282.125 201 C 280.75 204.5 279.25 207.875 277.75 211.25 C 276.5 213.75 275.125 216.25 274 218.75 C 273.625 219.375 272.875 220.5 272.5 221 C 266.875 224 263 229.125 257.625 232.5 C 256 234.125 254.25 235.875 252.5 237.375 C 252.125 230.625 258.125 226.5 261.625 221.375 C 266.375 214.625 271.625 208.125 276.5 201.5 C 279 198.5 281.75 195.75 284.5 193.125 C 285 193.125 286.25 193 286.75 193 z M 128.375 197.25 C 128.25 199.25 127.875 201.25 126.375 202.875 C 123 209 117 212.625 112.5 217.75 C 111.625 217.75 110.875 217.625 110.125 217.5 C 110.875 217.25 112.5 216.875 113.25 216.625 C 113.125 216.125 112.875 215 112.75 214.5 L 113.75 214.25 C 118.75 208.625 123 202.375 128.375 197.25 z M 321.875 201.625 L 321.875 204.625 C 318.125 208.5 314.875 212.75 311.375 216.75 L 311 216.875 C 310 218.375 309 219.875 308 221.5 C 306.75 222.625 305.625 223.75 304.5 224.875 C 304.125 225.625 303.375 227 303 227.625 C 303.5 225.875 304.125 224.125 304.625 222.375 C 306 221.25 307.125 220.125 308.375 218.875 L 308 217.625 L 308.875 218.375 C 310.375 215.875 311.875 213.5 313.5 211.125 C 314.625 210.125 315.75 209.375 316.875 208.5 C 316.75 208.25 316.625 207.75 316.5 207.5 C 318.25 205.5 320 203.625 321.875 201.625 z " transform="scale(0.8,0.8)" id="path16"/>
  <path style="fill:#36441b;stroke:#36441b;stroke-width:0.11718750000000000;fill-opacity:1" d="M 127.25 160.96875 C 124.21484 160.85742 121.4375 162.875 119 164.75 C 111.375 175.875 101.5 185.25 94.125 196.375 C 87.625 204.875 80.375 212.75 74 221.375 C 66.125 230.5 59.375 240.75 50.25 248.875 C 50.375 247.25 50.625 244 50.875 242.375 C 51.875 240 53 237.5 54.125 235.125 C 55.25 232.625 56.375 230 57.625 227.5 C 58.375 226.25 59 224.875 59.75 223.625 C 60.875 220.875 61.875 218 62.625 215 C 65.25 208.875 68.625 203 71.5 197 C 72.25 195.125 73.125 193.125 74 191.25 C 75.25 189.125 76.625 187 78 184.875 C 78 184 78.125 182 78.125 181.125 C 77.625 180.375 76.625 178.875 76 178.125 C 74.375 178.25 72.75 178.5 71 178.625 L 70.125 179.375 C 67.25 181.75 64.375 184.125 61.5 186.375 C 56.25 191.25 51.75 196.75 47 202 C 41 209.375 34.375 216.375 30.25 225 C 25.625 231.375 22.125 238.625 19.625 246 C 17.75 250.125 17 254.5 18.375 258.875 C 25.375 254.5 30 247.125 34 240 C 37 235.625 40.875 232 43.875 227.5 C 49 221.125 53 213.75 59.125 208.25 C 59.625 206.75 60.25 205.375 61 204 C 61 209.625 56.75 213.75 54.5 218.5 C 54.25 219.125 53.625 220.375 53.375 221 C 52.625 223.125 51.875 225.375 51 227.5 C 48.5 232.75 46.75 238.375 44.875 243.875 C 43.25 247.75 44.625 251.875 45.875 255.625 C 47.875 255.75 49.875 255.75 51.75 255.75 C 61.75 248.25 69 237.875 77.125 228.625 C 79.25 226 81.375 223.375 83.5 220.875 C 94.25 206.375 106 192.75 117.25 178.625 C 120.25 174.375 123.875 170.625 128 167.5 C 128 170.125 127.875 172.875 128 175.625 C 134.25 174 131.5 166.375 130.375 161.875 C 129.3125 161.28125 128.26172 161.00586 127.25 160.96875 z M 63.875 193.25 C 64 194.25 64.375 196.125 64.5 197 L 63 196.375 L 63.125 197.625 C 56.625 206.625 48.625 214.375 42.25 223.375 C 37.875 228.5 34.75 234.5 29.625 238.875 C 29.25 239.625 28.375 241.25 28 242 C 28.625 236 33.125 231.375 36.25 226.375 C 39.25 222.25 42 217.875 45.5 214.25 C 51.625 208 56.375 200.625 63 195 C 63.25 194.5 63.75 193.75 63.875 193.25 z " transform="scale(0.8,0.8)" id="path18"/>
</svg>